<?xml version="1.0" encoding="UTF-8"?>
<svg version="1.1" xmlns="http://www.w3.org/2000/svg" width="476" height="537">
<path d="M0 0 C157.08 0 314.16 0 476 0 C476 177.21 476 354.42 476 537 C318.92 537 161.84 537 0 537 C0 359.79 0 182.58 0 0 Z " fill="#EA781E" transform="translate(0,0)"/>
<path d="M0 0 C157.08 0 314.16 0 476 0 C476 177.21 476 354.42 476 537 C318.92 537 161.84 537 0 537 C0 359.79 0 182.58 0 0 Z M173 36 C171.824375 37.09828125 171.824375 37.09828125 170.625 38.21875 C153.53340362 54.61744382 142.56116592 79.25509932 141.7590332 102.95507812 C141.67204336 108.13795213 141.73601665 113.31741149 141.8125 118.5 C141.82759581 120.30597824 141.84127543 122.1119689 141.85351562 123.91796875 C141.8860836 128.27896088 141.93758593 132.63933714 142 137 C141.11130219 136.99333817 140.22260437 136.98667633 139.30697632 136.97981262 C130.92067218 136.91963345 122.53444085 136.87399098 114.1479702 136.84456348 C109.83667137 136.82892576 105.52555138 136.80772224 101.21435547 136.77368164 C97.05167515 136.74102041 92.88916655 136.72313274 88.72636795 136.71536827 C87.14038008 136.70983688 85.55440131 136.69903534 83.96848679 136.68280983 C81.74229573 136.66094509 79.51680897 136.65803677 77.29052734 136.65942383 C76.02477875 136.65276199 74.75903015 136.64610016 73.45492554 136.63923645 C68.26538693 137.18112841 65.06110429 139.02115259 61.26318359 142.5246582 C58.05105806 146.71209661 57.55749938 151.50321841 56.7890625 156.60546875 C56.61551239 157.65553101 56.44196228 158.70559326 56.26315308 159.78747559 C55.69691929 163.25123356 55.16020276 166.71882204 54.625 170.1875 C54.23337514 172.63858023 53.84078191 175.08950592 53.44726562 177.5402832 C49.16458046 204.46570784 45.54935971 231.48089757 42.01806641 258.51318359 C40.95674456 266.63474535 39.88889559 274.75542181 38.8125 282.875 C38.72039623 283.57020626 38.62829247 284.26541252 38.53339767 284.98168564 C34.71718365 313.7477009 30.28989776 342.40592912 25.76300049 371.06738281 C25.63700722 371.86517151 25.51101395 372.66296021 25.3812027 373.48492432 C25.1272905 375.09252167 24.87329792 376.70010633 24.61922455 378.30767822 C20.77739204 402.62855638 17.16126146 426.98329939 13.57550049 451.34306335 C12.6139324 457.87120165 11.6402802 464.39715697 10.6421051 470.9197998 C10.13543423 474.23776304 9.6375497 477.55699871 9.14205933 480.87664795 C8.92814504 482.29546677 8.7102192 483.71368874 8.48757935 485.13116455 C6.48088125 497.92299402 6.7779713 506.68343578 13.6875 517.6875 C19.66719826 523.66719826 26.60953409 526.12329061 34.9189167 526.13142776 C35.63048719 526.1334804 36.34205767 526.13553303 37.0751909 526.13764787 C39.47780757 526.14333667 41.88036725 526.1418583 44.2829895 526.14044189 C46.01570606 526.14302446 47.74842202 526.14603732 49.48113716 526.1494453 C54.25704914 526.15753145 59.0329461 526.15930577 63.80886412 526.16004276 C68.95422998 526.16189054 74.099588 526.16943654 79.24494934 526.17617798 C90.50328034 526.18977385 101.76160778 526.19578813 113.01994562 526.20018864 C120.04756782 526.20294925 127.07518864 526.2071863 134.10280991 526.21169281 C153.55348436 526.2238877 173.0041577 526.2341862 192.45483589 526.2375679 C194.32307826 526.23789725 194.32307826 526.23789725 196.22906291 526.23823325 C197.47757258 526.23845153 198.72608225 526.23866981 200.01242554 526.2388947 C202.54246338 526.23933817 205.07250122 526.23978473 207.60253906 526.24023438 C209.48502634 526.24056652 209.48502634 526.24056652 211.40554367 526.24090537 C231.73974839 526.24485315 252.07391726 526.26230558 272.40810813 526.2855939 C293.276187 526.30930105 314.14424787 526.32176948 335.01234043 526.32293582 C346.73246071 526.323853 358.45253432 526.32961607 370.17264175 526.34775543 C380.15328143 526.3631479 390.13386001 526.36828196 400.1145093 526.36001733 C405.20721127 526.35610765 410.29979017 526.35705594 415.39247704 526.37107468 C420.05596607 526.38379456 424.71923931 526.38263284 429.38272797 526.37048396 C431.06852283 526.36852364 432.75433289 526.37162087 434.44010641 526.38032833 C450.1332104 526.4974247 450.1332104 526.4974247 463.4296875 518.87890625 C469.55728349 511.54713095 471.55838773 503.34935233 471 494 C470.40984644 488.90266333 469.62866578 483.83887518 468.83984375 478.76953125 C468.61192622 477.27257485 468.38460424 475.77552767 468.15783691 474.27839661 C467.55109967 470.28349882 466.93629073 466.28988237 466.31995773 462.29645538 C465.67651906 458.11750223 465.04089421 453.9373611 464.40454102 449.75732422 C463.27643061 442.35374356 462.14253687 434.95106554 461.00542545 427.54886246 C459.60622092 418.43947479 458.21834139 409.32836824 456.83203125 400.2170105 C456.434055 397.60236685 456.03541425 394.98782508 455.63671875 392.37329102 C453.04090468 375.33661358 450.48546165 358.29388823 447.9375 341.25 C447.82905258 340.5248822 447.72060516 339.7997644 447.60887146 339.05267334 C445.43371741 324.50702153 443.25942862 309.96147102 441.203125 295.3984375 C441.06979263 294.45524658 440.93646027 293.51205566 440.79908752 292.5402832 C440.21325416 288.38625478 439.63297285 284.2315948 439.06420898 280.07519531 C437.78941577 270.87262858 436.26718813 261.73109061 434.65234375 252.58203125 C431.78178255 236.23376532 429.46961436 219.81831113 427.19592285 203.37817383 C426.76605255 200.27637101 426.33241471 197.1751006 425.89849472 194.07386208 C425.57650003 191.77216655 425.25523543 189.47037015 424.93414307 187.16854858 C424.51954111 184.19649723 424.10308241 181.22471421 423.68548584 178.25308228 C422.79189665 171.87116894 421.92387277 165.48957738 421.16894531 159.08935547 C421.04415802 158.06627792 420.91937073 157.04320038 420.790802 155.98912048 C420.56962065 154.15301827 420.36141161 152.315278 420.16989136 150.47584534 C419.57089415 145.57703914 418.77410092 142.49006894 415 139 C410.82999044 136.86749625 407.28460784 136.75712229 402.6394043 136.77294922 C401.55566277 136.77251114 401.55566277 136.77251114 400.45002747 136.77206421 C398.07463345 136.77345161 395.69955761 136.78898475 393.32421875 136.8046875 C391.67226839 136.80841973 390.0203158 136.81126571 388.36836243 136.81326294 C384.02987509 136.82088286 379.6915226 136.84051719 375.35308838 136.8626709 C370.92225977 136.88316474 366.49140927 136.89227221 362.06054688 136.90234375 C353.37363618 136.92376469 344.68683488 136.95788074 336 137 C336.0314209 135.32381592 336.0314209 135.32381592 336.06347656 133.61376953 C336.13714746 129.3756243 336.18224993 125.13753243 336.21972656 120.89892578 C336.23955821 119.08177098 336.26663217 117.26467742 336.30175781 115.44775391 C336.59869813 99.66624963 335.14473357 84.5988222 328.625 70 C328.17338501 68.95187134 328.17338501 68.95187134 327.71264648 67.88256836 C317.20428956 44.03061738 298.07513267 25.73719088 274.375 15.28125 C238.20593484 1.55040119 200.70208135 9.39142186 173 36 Z " fill="#F6E7C7" transform="translate(0,0)"/>
<path d="M0 0 C0.68999084 0.00054382 1.37998169 0.00108765 2.09088135 0.00164795 C33.85443015 0.11571821 63.67965905 7.48885339 86.75 30.375 C87.71372103 31.3698088 88.67435213 32.367691 89.625 33.375 C87.98721955 37.57125909 84.89176818 40.36176785 81.7421875 43.453125 C81.16792023 44.02456238 80.59365295 44.59599976 80.00198364 45.18475342 C78.1726419 47.00292945 76.33645807 48.81401492 74.5 50.625 C73.25605226 51.85891329 72.0125573 53.09328322 70.76953125 54.328125 C67.72657633 57.34906743 64.67746746 60.36367092 61.625 63.375 C58.33133911 61.78882629 55.64611504 59.92780784 52.75 57.6875 C37.00838043 46.15341438 20.21190169 41.22593472 0.9375 41.0625 C-0.18333984 41.03349609 -1.30417969 41.00449219 -2.45898438 40.97460938 C-13.08843129 40.89441041 -21.98929153 43.05726558 -29.78125 50.59375 C-33.78287481 55.0661542 -34.99764969 59.19034796 -34.69140625 65.078125 C-34.11097027 69.29166025 -33.28147441 72.17328553 -30.375 75.375 C-16.34416442 85.42439969 3.0113863 87.78027265 19.5625 90.8125 C43.82711752 95.28153553 70.2668661 100.77031486 85.31640625 122.21484375 C94.24106212 136.94718612 96.20236391 154.74446206 92.9375 171.59765625 C88.27580311 189.1372908 77.61660339 202.31546514 62.15234375 211.4140625 C54.17484229 215.91106605 46.05554799 219.4274315 37.3125 222.125 C36.68625732 222.32383789 36.06001465 222.52267578 35.41479492 222.72753906 C22.69862267 226.41082234 9.31259527 226.72649178 -3.82861328 226.69067383 C-6.24167049 226.68751092 -8.65349873 226.71110695 -11.06640625 226.73632812 C-41.57368291 226.86120164 -74.96804926 217.03636044 -97.375 195.375 C-98.07692522 194.05988662 -98.75047349 192.72858371 -99.375 191.375 C-98.83311035 190.72035767 -98.83311035 190.72035767 -98.28027344 190.05249023 C-89.8833552 179.90113061 -81.57184216 169.6886091 -73.375 159.375 C-70.19318281 160.77965588 -67.53538067 162.67217704 -64.75854492 164.7512207 C-41.32623132 182.22379552 -15.40163586 186.94381945 13.375 183.75 C20.96909427 182.44099353 28.64139881 179.67131541 33.8984375 173.86328125 C37.42367757 168.78278821 37.22684392 163.3516445 36.625 157.375 C34.99027064 152.51523391 31.98226916 149.00751679 27.625 146.375 C19.14497423 142.99589446 10.37075109 141.14460483 1.44497681 139.42501831 C-63.60025933 126.83016251 -63.60025933 126.83016251 -82.84375 100.82421875 C-91.42135745 87.10442316 -93.59035383 70.4083992 -90.6875 54.640625 C-85.63474437 37.04019289 -73.82005863 22.27756021 -57.8203125 13.3515625 C-39.40963167 3.4998921 -20.85996949 -0.02811661 0 0 Z " fill="#F5ECD6" transform="translate(237.375,231.625)"/>
<path d="M0 0 C0.88244385 0.00749268 1.7648877 0.01498535 2.67407227 0.02270508 C23.07504834 0.36061335 41.4675676 9.25207505 55.68261719 23.78515625 C78.24976448 47.7417882 77.0625 75.30281451 77.0625 107.25 C26.9025 107.25 -23.2575 107.25 -74.9375 107.25 C-74.9375 46.62222222 -74.9375 46.62222222 -51.52734375 21.69140625 C-37.36046928 8.3365095 -19.62913975 -0.22046744 0 0 Z " fill="#F6E7C7" transform="translate(237.9375,29.75)"/>
<path d="M0 0 C0.93199219 0.45246094 1.86398437 0.90492187 2.82421875 1.37109375 C28.12389396 14.39142869 44.28550761 37.75211929 52.9921875 64.20703125 C55.55919027 73.86811533 56.26195602 82.97124539 56.203125 92.953125 C56.2109729 94.93889024 56.2188563 96.92465607 56.22881699 98.91041183 C56.25125906 103.75418242 56.25552742 108.59764714 56.22998047 113.44140625 C56.21646178 116.17842745 56.21882952 118.9145664 56.23846436 121.65155029 C56.25619393 124.21468887 56.25077418 126.77812186 56.21905518 129.34112549 C56.26757066 136.88912447 56.26757066 136.88912447 59.98339844 143.21386719 C60.98162392 144.15042911 61.98579222 145.08076939 63 146 C65.48903605 150.9780721 64.55595954 158.23401088 62.9375 163.375 C59.02502765 168.67576899 54.58596553 172.62792385 48 174 C42.04689538 174.66145607 37.83781669 173.37863716 33 170 C28.02491689 165.1649084 25.84082539 161.82511912 25.6875 154.8125 C25.73343723 148.87347276 26.34763212 145.66691451 30 141 C30.6960585 140.55195007 31.392117 140.10390015 32.10926819 139.64227295 C34.21494059 138.14581448 34.21494059 138.14581448 34.50120544 135.65216064 C34.50137161 134.72699646 34.50153778 133.80183228 34.50170898 132.84863281 C34.51108994 131.79613342 34.52047089 130.74363403 34.53013611 129.65924072 C34.51890213 128.51872253 34.50766815 127.37820435 34.49609375 126.203125 C34.49754898 125.02216248 34.49900421 123.84119995 34.50050354 122.62445068 C34.49884092 120.11598251 34.48723944 117.60750452 34.46655273 115.09912109 C34.43792653 111.30650996 34.44587208 107.51532592 34.45898438 103.72265625 C34.4369321 77.29179872 30.2506774 54.39793022 11.50390625 34.4140625 C-5.16569344 18.34259197 -24.47213746 12.46750633 -47.05859375 12.796875 C-65.2687627 13.3591924 -83.19817197 23.68150934 -95.59375 36.73046875 C-114.75325566 59.37061794 -116.43884619 83.50688825 -116.6875 111.9375 C-116.72072829 114.56707374 -116.75522289 117.19663179 -116.79101562 119.82617188 C-116.8752842 126.2173403 -116.94389346 132.60852552 -117 139 C-116.38511719 139.2784375 -115.77023438 139.556875 -115.13671875 139.84375 C-111.74926362 141.6768153 -109.70456704 144.59086593 -108 148 C-107.49865745 154.44032357 -107.02051082 160.60843401 -111 166 C-115.885592 171.10766436 -120.26170497 173.58463389 -127.375 174.375 C-134.70634462 173.61658504 -139.28023406 170.3002041 -143.87109375 164.68359375 C-147.12508305 159.8307585 -146.54658416 153.58402192 -146 148 C-144.39887197 144.85295526 -143.10208418 142.89564856 -140.38633728 140.68859863 C-138.42214207 138.29615244 -138.62810412 136.61416341 -138.63110352 133.54492188 C-138.62422012 132.42525024 -138.61733673 131.30557861 -138.61024475 130.15197754 C-138.61640305 128.93651245 -138.62256134 127.72104736 -138.62890625 126.46875 C-138.61149412 123.87630096 -138.59391015 121.28385308 -138.57617188 118.69140625 C-138.56320512 114.6196269 -138.56247266 110.54786963 -138.56420898 106.47607422 C-138.53194444 71.41096257 -131.90496317 43.289868 -106.9375 17.5 C-78.90019419 -10.45560012 -35.62484954 -17.48114935 0 0 Z " fill="#142A3D" transform="translate(280,18)"/>
<path d="M0 0 C0.33 0.66 0.66 1.32 1 2 C6.94 2 12.88 2 19 2 C19 2.33 19 2.66 19 3 C11.08 3.495 11.08 3.495 3 4 C2.896875 6.371875 2.79375 8.74375 2.6875 11.1875 C2.61921997 12.29387817 2.61921997 12.29387817 2.54956055 13.42260742 C2.46504296 17.46036716 2.88612569 18.86493977 5.51953125 21.98828125 C6.33808594 22.65214844 7.15664062 23.31601563 8 24 C7.67 24.66 7.34 25.32 7 26 C3.49031109 23.8056672 0.4392599 21.80233942 -0.57763672 17.62988281 C-0.68794845 14.932583 -0.61233912 12.31867518 -0.4375 9.625 C-0.40591797 8.69816406 -0.37433594 7.77132812 -0.34179688 6.81640625 C-0.25969306 4.54095763 -0.14499775 2.27216254 0 0 Z " fill="#F0881C" transform="translate(163,137)"/>
<path d="M0 0 C0.66 0.33 1.32 0.66 2 1 C1.21625 1.474375 0.4325 1.94875 -0.375 2.4375 C-3.54979908 5.53670862 -3.92312726 7.62414467 -4.640625 11.87890625 C-5 14 -5 14 -6 17 C-8.5625 18.1875 -8.5625 18.1875 -11 19 C-11.63938847 13.88489225 -10.27445976 11.02666486 -7.51171875 6.90234375 C-5.29717684 4.11556879 -2.851451 2.12201005 0 0 Z " fill="#E96914" transform="translate(213,277)"/>
<path d="M0 0 C0.33 0 0.66 0 1 0 C1 1.65 1 3.3 1 5 C1.66 5 2.32 5 3 5 C2.67 6.65 2.34 8.3 2 10 C1.01 10.33 0.02 10.66 -1 11 C-3.21751399 14.69585666 -4 16.63008373 -4 21 C-5.65 21.66 -7.3 22.32 -9 23 C-7.1431406 18.31486863 -5.1829188 13.67610386 -3.21875 9.03515625 C-2.02212105 6.05508992 -0.98380378 3.05616823 0 0 Z " fill="#E86C17" transform="translate(330,401)"/>
<path d="M0 0 C0.33 0 0.66 0 1 0 C1 1.65 1 3.3 1 5 C1.66 5 2.32 5 3 5 C3 5.66 3 6.32 3 7 C2.01 7 1.02 7 0 7 C0.56739868 11.12973628 0.56739868 11.12973628 2 15 C1.525625 15.53625 1.05125 16.0725 0.5625 16.625 C-1.28186076 19.42842836 -1.62456847 21.69620258 -2 25 C-2.33 25 -2.66 25 -3 25 C-3.55048791 16.33491247 -1.88081125 8.39647878 0 0 Z " fill="#E86513" transform="translate(14,452)"/>
<path d="M0 0 C3.79235994 1.48985569 5.80565887 3.58658047 8 7 C7.75 9.3125 7.75 9.3125 7 11 C6.67 10.34 6.34 9.68 6 9 C5.67 9.99 5.34 10.98 5 12 C3 10.375 3 10.375 1 8 C0.8125 4.875 0.8125 4.875 1 2 C0.67 1.34 0.34 0.68 0 0 Z " fill="#102446" transform="translate(163,157)"/>
<path d="M0 0 C0.99 0.495 0.99 0.495 2 1 C1.01 1.495 1.01 1.495 0 2 C0 1.34 0 0.68 0 0 Z M-3 2 C-2.01 2 -1.02 2 0 2 C0.33 2.99 0.66 3.98 1 5 C0.34 5 -0.32 5 -1 5 C-1 6.32 -1 7.64 -1 9 C-1.66 9 -2.32 9 -3 9 C-3.33 12.96 -3.66 16.92 -4 21 C-4.33 21 -4.66 21 -5 21 C-5.24991456 14.34949576 -4.73955334 8.43013467 -3 2 Z " fill="#EA6B19" transform="translate(57,176)"/>
<path d="M0 0 C0.598125 0.350625 1.19625 0.70125 1.8125 1.0625 C0.8225 1.3925 -0.1675 1.7225 -1.1875 2.0625 C-1.5175 3.0525 -1.8475 4.0425 -2.1875 5.0625 C0.4525 5.3925 3.0925 5.7225 5.8125 6.0625 C5.8125 6.3925 5.8125 6.7225 5.8125 7.0625 C1.26444365 7.24085515 -2.0669254 7.06035435 -6.1875 5.0625 C-5.8575 3.4125 -5.5275 1.7625 -5.1875 0.0625 C-2.1875 -0.9375 -2.1875 -0.9375 0 0 Z " fill="#E96C18" transform="translate(210.1875,407.9375)"/>
<path d="M0 0 C7.11120489 1.31117661 14.04699943 3.01720516 21 5 C14.055 6.74 14.055 6.74 11 7 C9.98477777 6.01545756 8.98648001 5.01333962 8 4 C5.96922316 3.01371583 5.96922316 3.01371583 3.8125 2.3125 C3.09707031 2.06113281 2.38164062 1.80976563 1.64453125 1.55078125 C1.10183594 1.36902344 0.55914062 1.18726563 0 1 C0 0.67 0 0.34 0 0 Z " fill="#E86212" transform="translate(197,361)"/>
<path d="M0 0 C-4.64203897 2.53309233 -8.65155992 4.46515599 -14 5 C-13.67 5.99 -13.34 6.98 -13 8 C-15.475 7.01 -15.475 7.01 -18 6 C-15.37972564 3.37972564 -12.42076703 2.51801127 -9 1.3125 C-8.03707031 0.95575195 -8.03707031 0.95575195 -7.0546875 0.59179688 C-2.2465087 -1.12325435 -2.2465087 -1.12325435 0 0 Z " fill="#E96413" transform="translate(290,449)"/>
<path d="M0 0 C0.66 0.33 1.32 0.66 2 1 C0.02 3.31 -1.96 5.62 -4 8 C-3.01 8.33 -2.02 8.66 -1 9 C-3.3125 10.125 -3.3125 10.125 -6 11 C-6.99 10.34 -7.98 9.68 -9 9 C-6.03 6.03 -3.06 3.06 0 0 Z " fill="#0C1C2B" transform="translate(178,31)"/>
<path d="M0 0 C0.33 0.66 0.66 1.32 1 2 C-1.11997834 3.19733988 -3.24513676 4.38298713 -5.375 5.5625 C-5.97828125 5.90474609 -6.5815625 6.24699219 -7.203125 6.59960938 C-8.76978241 7.46127095 -10.38290862 8.23718183 -12 9 C-12.66 8.67 -13.32 8.34 -14 8 C-13.505 7.54625 -13.01 7.0925 -12.5 6.625 C-10.77390663 5.12364481 -10.77390663 5.12364481 -11 3 C-10.37351563 2.86722656 -9.74703125 2.73445312 -9.1015625 2.59765625 C-8.28429687 2.42105469 -7.46703125 2.24445313 -6.625 2.0625 C-5.40683594 1.80146484 -5.40683594 1.80146484 -4.1640625 1.53515625 C-1.970537 1.07669307 -1.970537 1.07669307 0 0 Z " fill="#EA6615" transform="translate(188,239)"/>
<path d="M0 0 C0.33 1.32 0.66 2.64 1 4 C1.66 4 2.32 4 3 4 C2.67 5.65 2.34 7.3 2 9 C1.34 8.67 0.68 8.34 0 8 C-0.45375 8.495 -0.9075 8.99 -1.375 9.5 C-3 11 -3 11 -5 11 C-4.731875 10.484375 -4.46375 9.96875 -4.1875 9.4375 C-2.67650593 6.33598585 -1.34427274 3.17737194 0 0 Z " fill="#EF861B" transform="translate(344,176)"/>
<path d="M0 0 C-0.71027344 0.19335938 -1.42054688 0.38671875 -2.15234375 0.5859375 C-3.53099609 0.97652344 -3.53099609 0.97652344 -4.9375 1.375 C-5.85402344 1.63023438 -6.77054688 1.88546875 -7.71484375 2.1484375 C-10.16745087 2.76660104 -10.16745087 2.76660104 -11 5 C-12.98 5 -14.96 5 -17 5 C-16 3 -16 3 -13.625 1.875 C-11 1 -11 1 -8 1 C-8 0.34 -8 -0.32 -8 -1 C-4.53578294 -2.23722038 -3.15772202 -1.73807388 0 0 Z " fill="#1B3144" transform="translate(225,30)"/>
<path d="M0 0 C0.99 0 1.98 0 3 0 C3.33 1.32 3.66 2.64 4 4 C3.01 4.33 2.02 4.66 1 5 C1.33 7.31 1.66 9.62 2 12 C1.01 11.67 0.02 11.34 -1 11 C-0.67 7.37 -0.34 3.74 0 0 Z " fill="#EA7D2E" transform="translate(47,221)"/>
<path d="M0 0 C0.66 0.33 1.32 0.66 2 1 C-8.37357631 6.74031891 -8.37357631 6.74031891 -14 6 C-13.34 5.67 -12.68 5.34 -12 5 C-12 4.34 -12 3.68 -12 3 C-10.700625 3.0928125 -10.700625 3.0928125 -9.375 3.1875 C-5.5566675 2.97537042 -3.34976642 1.75101426 0 0 Z " fill="#E75D0D" transform="translate(265,409)"/>
<path d="M0 0 C2.76223278 2.76223278 2.57856291 5.20706617 3 9 C2.01 8.01 1.02 7.02 0 6 C-0.99 6.33 -1.98 6.66 -3 7 C-3.1875 4.625 -3.1875 4.625 -3 2 C-2.01 1.34 -1.02 0.68 0 0 Z " fill="#EA6B16" transform="translate(147,316)"/>
<path d="M0 0 C2.475 0.495 2.475 0.495 5 1 C5.12375 1.94875 5.2475 2.8975 5.375 3.875 C5.71687177 7.08667191 5.71687177 7.08667191 8 9 C7.34 9.66 6.68 10.32 6 11 C4.9944239 9.54550599 3.99569565 8.08627557 3 6.625 C2.443125 5.81289063 1.88625 5.00078125 1.3125 4.1640625 C0 2 0 2 0 0 Z " fill="#0D1A29" transform="translate(298,58)"/>
<path d="M0 0 C0.33 0.99 0.66 1.98 1 3 C-0.9375 6.1875 -0.9375 6.1875 -3 9 C-3.66 8.67 -4.32 8.34 -5 8 C-4.67 6.35 -4.34 4.7 -4 3 C-3.01 2.67 -2.02 2.34 -1 2 C-0.67 1.34 -0.34 0.68 0 0 Z " fill="#E96611" transform="translate(468,507)"/>
<path d="M0 0 C0.99 0 1.98 0 3 0 C3 0.66 3 1.32 3 2 C3.886875 2.12375 4.77375 2.2475 5.6875 2.375 C8.70387502 2.94412736 11.20326054 3.76614436 14 5 C10.14507389 6.28497537 8.59653164 5.4052209 4.8125 4.0625 C3.72582031 3.68222656 2.63914062 3.30195313 1.51953125 2.91015625 C0.68808594 2.60980469 -0.14335937 2.30945313 -1 2 C-0.67 1.34 -0.34 0.68 0 0 Z " fill="#EA600D" transform="translate(277,234)"/>
<path d="M0 0 C1.26224414 3.78673241 0.32806648 5.3282868 -1 9 C-1 9.66 -1 10.32 -1 11 C-2.65 11.66 -4.3 12.32 -6 13 C-4.31326082 8.50202887 -2.18326108 4.27113698 0 0 Z " fill="#E75D0D" transform="translate(327,411)"/>
<path d="M0 0 C0 4.38968456 -2.12805101 5.76905739 -5 9 C-5 6 -5 6 -4 4 C-4.99 3.67 -5.98 3.34 -7 3 C-4.69 2.01 -2.38 1.02 0 0 Z " fill="#E96211" transform="translate(143,415)"/>
<path d="M0 0 C0.33 0 0.66 0 1 0 C1.08159574 4.16138263 0.98248524 7.9472484 0 12 C-2.29013653 8.5647952 -2.17842973 7.014669 -2 3 C-1.34 3 -0.68 3 0 3 C0 2.01 0 1.02 0 0 Z " fill="#F6F1DF" transform="translate(20,401)"/>
<path d="M0 0 C0.99 0 1.98 0 3 0 C2.34 3.3 1.68 6.6 1 10 C-1.17766075 5.64467851 -1.03039555 4.53374042 0 0 Z " fill="#E8E2CD" transform="translate(144,77)"/>
<path d="M0 0 C3.94139078 1.66751148 6.7892812 4.22710649 10 7 C9.34 7.66 8.68 8.32 8 9 C6.66368764 7.6905332 5.33102075 6.37734515 4 5.0625 C3.2575 4.33160156 2.515 3.60070313 1.75 2.84765625 C0 1 0 1 0 0 Z " fill="#DCD9CB" transform="translate(300,31)"/>
<path d="M0 0 C2.475 0.495 2.475 0.495 5 1 C3.63016497 4.16115776 3.0109362 4.9927092 0 7 C0 4.69 0 2.38 0 0 Z " fill="#EA6B12" transform="translate(28,359)"/>
<path d="M0 0 C0.33 0 0.66 0 1 0 C1.33 3.96 1.66 7.92 2 12 C1.01 11.67 0.02 11.34 -1 11 C-0.67 7.37 -0.34 3.74 0 0 Z " fill="#EA7C2D" transform="translate(51,193)"/>
<path d="M0 0 C2.64 0.33 5.28 0.66 8 1 C8 1.66 8 2.32 8 3 C8.66 3.33 9.32 3.66 10 4 C3.47692308 3.38461538 3.47692308 3.38461538 1.0625 1.4375 C0.711875 0.963125 0.36125 0.48875 0 0 Z " fill="#F6F3E6" transform="translate(178,448)"/>
<path d="M0 0 C0 3.51716303 -0.82445585 4.37121748 -3 7 C-4.32 6.67 -5.64 6.34 -7 6 C-4.69 4.02 -2.38 2.04 0 0 Z " fill="#F5F5E4" transform="translate(465,516)"/>
<path d="M0 0 C0.99 0 1.98 0 3 0 C3 1.98 3 3.96 3 6 C2.34 6 1.68 6 1 6 C0.67 6.66 0.34 7.32 0 8 C0 5.36 0 2.72 0 0 Z " fill="#283844" transform="translate(333,97)"/>
<path d="M0 0 C0 3.57575896 -1.08840607 5.05295935 -3 8 C-3.66 7.01 -4.32 6.02 -5 5 C-3.35 3.35 -1.7 1.7 0 0 Z " fill="#DFDAC9" transform="translate(188,50)"/>
</svg>
